<svg height="480pt" viewBox="0 0 480 480" width="480pt" xmlns="http://www.w3.org/2000/svg"><path d="m360 40v88h-16l-4.800781 24h-43.359375l-3.761719-2.480469-2.476563 2.480469h-281.601562v-112c0-17.671875 14.328125-32 32-32h288c17.671875 0 32 14.328125 32 32zm0 0" fill="#3d9ae2"/><path d="m289.601562 152h-281.601562v288c0 17.671875 14.328125 32 32 32h288c17.671875 0 32-14.328125 32-32v-288zm0 0" fill="#5aaae7"/><path d="m281.761719 200h-49.761719v224h88c4.417969 0 8-3.582031 8-8v-216zm0 0" fill="#ff5023"/><path d="m445.28125 261.359375c-2.101562 8.398437-5.445312 16.433594-9.921875 23.839844l15.121094 22.722656-22.558594 22.558594-22.722656-15.121094c-7.40625 4.476563-15.441407 7.820313-23.839844 9.921875l-5.359375 26.71875h-32l-5.359375-26.71875c-3.609375-.941406-7.164063-2.089844-10.640625-3.441406-4.582031-1.769532-8.996094-3.9375-13.199219-6.480469l-22.722656 15.121094-22.558594-22.558594 15.121094-22.722656c-4.476563-7.40625-7.820313-15.441407-9.921875-23.839844l-26.71875-5.359375v-32l26.71875-5.359375c1.652344-6.453125 4.015625-12.707031 7.042969-18.640625.878906-1.761719 1.839843-3.519531 2.878906-5.199219l-15.121094-22.722656 22.558594-22.558594 3.761719 2.480469 18.960937 12.640625c7.40625-4.476563 15.441407-7.820313 23.839844-9.921875l.558594-2.71875 4.800781-24h32l5.359375 26.71875c8.398437 2.101562 16.433594 5.445312 23.839844 9.921875l22.722656-15.121094 22.558594 22.558594-15.121094 22.722656c4.476563 7.40625 7.820313 15.441407 9.921875 23.839844l26.71875 5.359375v32zm0 0" fill="#ff9811"/><path d="m48 40h272c4.417969 0 8 3.582031 8 8v64c0 4.417969-3.582031 8-8 8h-272c-4.417969 0-8-3.582031-8-8v-64c0-4.417969 3.582031-8 8-8zm0 0" fill="#ffd422"/><path d="m136 312v112h-88c-4.417969 0-8-3.582031-8-8v-104zm0 0" fill="#ee8700"/><path d="m136 200h96v112h-96zm0 0" fill="#ee8700"/><path d="m232 312v112h-96v-112zm0 0" fill="#ff6243"/><path d="m136 200v112h-96v-104c0-4.417969 3.582031-8 8-8zm0 0" fill="#ff6243"/><path d="m360 192c-26.507812 0-48 21.492188-48 48s21.492188 48 48 48 48-21.492188 48-48-21.492188-48-48-48zm0 0" fill="#ffd422"/><path d="m473.601562 216.160156-21.898437-4.382812c-1.765625-5.75-4.074219-11.320313-6.894531-16.632813l12.390625-18.59375c2.113281-3.171875 1.695312-7.390625-1-10.085937l-22.632813-22.632813c-2.695312-2.691406-6.914062-3.113281-10.085937-1l-18.617188 12.367188c-5.320312-2.808594-10.890625-5.113281-16.640625-6.886719l-4.382812-21.914062c-.761719-3.722657-4.039063-6.398438-7.839844-6.398438h-32c-3.800781 0-7.078125 2.675781-7.839844 6.398438l-4.382812 21.898437c-5.75 1.773437-11.320313 4.078125-16.640625 6.886719l-18.585938-12.382813c-3.171875-2.113281-7.390625-1.695312-10.085937 1l-22.632813 22.632813c-2.691406 2.695312-3.113281 6.914062-1 10.085937l12.367188 18.625c-2.820313 5.3125-5.128907 10.882813-6.894531 16.632813l-21.90625 4.382812c-3.722657.761719-6.398438 4.039063-6.398438 7.839844v32c0 3.800781 2.675781 7.078125 6.398438 7.839844l21.898437 4.382812c1.765625 5.75 4.074219 11.320313 6.894531 16.632813l-12.390625 18.59375c-2.113281 3.171875-1.695312 7.390625 1 10.085937l22.632813 22.632813c2.695312 2.691406 6.914062 3.113281 10.085937 1l18.617188-12.367188c5.320312 2.808594 10.890625 5.113281 16.640625 6.886719l4.382812 21.914062c.761719 3.722657 4.039063 6.398438 7.839844 6.398438h32c3.800781 0 7.078125-2.675781 7.839844-6.398438l4.382812-21.898437c5.75-1.773437 11.320313-4.078125 16.640625-6.886719l18.585938 12.382813c3.171875 2.113281 7.390625 1.695312 10.085937-1l22.632813-22.632813c2.691406-2.695312 3.113281-6.914062 1-10.085937l-12.367188-18.625c2.820313-5.3125 5.128907-10.882813 6.894531-16.632813l21.90625-4.382812c3.722657-.761719 6.398438-4.039063 6.398438-7.839844v-32c0-3.800781-2.675781-7.078125-6.398438-7.839844zm-9.601562 33.289063-20.289062 4.054687c-3.03125.605469-5.441407 2.90625-6.191407 5.902344-1.898437 7.636719-4.925781 14.941406-8.984375 21.683594-1.59375 2.648437-1.515625 5.984375.199219 8.558594l11.480469 17.207031-13.351563 13.351562-17.214843-11.464843c-2.574219-1.71875-5.90625-1.796876-8.558594-.207032-6.742188 4.050782-14.050782 7.078125-21.683594 8.976563-3 .75-5.296875 3.164062-5.902344 6.199219l-4.0625 20.289062h-18.882812l-4.0625-20.289062c-.605469-3.035157-2.902344-5.449219-5.902344-6.199219-7.632812-1.898438-14.941406-4.925781-21.683594-8.976563-2.65625-1.574218-5.980468-1.496094-8.558594.207032l-17.214843 11.464843-13.351563-13.351562 11.480469-17.207031c1.714844-2.574219 1.792969-5.910157.199219-8.558594-4.058594-6.742188-7.085938-14.046875-8.984375-21.683594-.75-2.996094-3.160157-5.296875-6.191407-5.902344l-20.289062-4.054687v-18.898438l20.289062-4.054687c3.03125-.605469 5.441407-2.90625 6.191407-5.902344 1.898437-7.636719 4.925781-14.941406 8.984375-21.683594 1.59375-2.648437 1.515625-5.984375-.199219-8.558594l-11.480469-17.207031 13.351563-13.351562 17.214843 11.464843c2.574219 1.71875 5.90625 1.796876 8.558594.207032 6.742188-4.050782 14.050782-7.078125 21.683594-8.976563 3-.75 5.296875-3.164062 5.902344-6.199219l4.0625-20.289062h18.882812l4.0625 20.289062c.605469 3.035157 2.902344 5.449219 5.902344 6.199219 7.632812 1.898438 14.941406 4.925781 21.683594 8.976563 2.652344 1.589844 5.984375 1.511718 8.558594-.207032l17.214843-11.464843 13.351563 13.351562-11.480469 17.207031c-1.714844 2.574219-1.792969 5.910157-.199219 8.558594 4.058594 6.742188 7.085938 14.046875 8.984375 21.683594.75 2.996094 3.160157 5.296875 6.191407 5.902344l20.289062 4.054687zm0 0"/><path d="m360 184c-30.929688 0-56 25.070312-56 56s25.070312 56 56 56 56-25.070312 56-56c-.035156-30.914062-25.085938-55.964844-56-56zm0 96c-22.089844 0-40-17.910156-40-40s17.910156-40 40-40 40 17.910156 40 40c-.027344 22.082031-17.917969 39.972656-40 40zm0 0"/><path d="m352 440c0 13.253906-10.746094 24-24 24h-288c-13.253906 0-24-10.746094-24-24v-280h240v-16h-240v-104c0-13.253906 10.746094-24 24-24h288c13.253906 0 24 10.746094 24 24v64h16v-64c-.027344-22.082031-17.917969-39.9726562-40-40h-288c-22.082031.0273438-39.9726562 17.917969-40 40v400c.0273438 22.082031 17.917969 39.972656 40 40h288c22.082031-.027344 39.972656-17.917969 40-40v-64h-16zm0 0"/><path d="m48 32c-8.835938 0-16 7.164062-16 16v64c0 8.835938 7.164062 16 16 16h272c8.835938 0 16-7.164062 16-16v-64c0-8.835938-7.164062-16-16-16zm0 80v-64h272v64zm0 0"/><path d="m176 72h16v16h-16zm0 0"/><path d="m208 72h16v16h-16zm0 0"/><path d="m144 72h16v16h-16zm0 0"/><path d="m80 280h16v-16h16v-16h-16v-16h-16v16h-16v16h16zm0 0"/><path d="m195.3125 233.375-11.3125 11.3125-11.3125-11.3125-11.3125 11.3125 11.3125 11.3125-11.3125 11.3125 11.3125 11.3125 11.3125-11.3125 11.3125 11.3125 11.3125-11.3125-11.3125-11.3125 11.3125-11.3125zm0 0"/><path d="m224 280v24h-80v-96h80v-16h-176c-8.835938 0-16 7.164062-16 16v208c0 8.835938 7.164062 16 16 16h272c8.835938 0 16-7.164062 16-16v-48h-16v48h-80v-136zm0 40v96h-80v-96zm-96-112v96h-80v-96zm-80 112h80v96h-80zm0 0"/><path d="m64 360h48v16h-48zm0 0"/><path d="m160 360h48v16h-48zm0 0"/><path d="m176 336h16v16h-16zm0 0"/><path d="m176 384h16v16h-16zm0 0"/></svg>