<svg width="582" height="481" xmlns="http://www.w3.org/2000/svg">

 <g>
  <title>background</title>
  <rect fill="none" id="canvas_background" height="483" width="584" y="-1" x="-1"/>
 </g>
 <g>
  <title>Layer 1</title>
  <g stroke="null" id="svg_25">
   <path stroke="null" id="svg_1" fill="#3d9ae2" d="m370.999995,27.333333l0,57.933332l-7.533333,0l-2.260367,15.8l-20.415041,0l-1.771138,-1.632976l-1.166052,1.632976l-132.587397,0l0,-73.733332c0,-11.633981 6.746161,-21.066666 15.066666,-21.066666l135.599996,0c8.32051,0 15.066666,9.432685 15.066666,21.066666zm0,0"/>
   <path stroke="null" id="svg_2" fill="#5aaae7" d="m337.854063,101.066665l-132.587397,0l0,189.599997c0,11.633987 6.746161,21.066666 15.066666,21.066666l135.599996,0c8.32051,0 15.066666,-9.432679 15.066666,-21.066666l0,-189.599997l-33.145931,0zm0,0"/>
   <path stroke="null" id="svg_3" fill="#ff5023" d="m334.162806,132.666665l-23.429476,0l0,147.466664l41.433332,0c2.080127,0 3.766667,-2.35817 3.766667,-5.266667l0,-142.199998l-21.770523,0zm0,0"/>
   <path stroke="null" id="svg_4" fill="#ff9811" d="m411.153248,173.061589c-0.989484,5.528966 -2.563833,10.81878 -4.671547,15.694561l7.119513,14.959084l-10.621336,14.851072l-10.698585,-9.954717c-3.487109,2.947069 -7.27033,5.148371 -11.224591,6.531898l-2.523375,17.589843l-15.066666,0l-2.52337,-17.589843c-1.699416,-0.619762 -3.373083,-1.375811 -5.009963,-2.265595c-2.157372,-1.164941 -4.235659,-2.592187 -6.214633,-4.266303l-10.698581,9.954717l-10.62134,-14.851072l7.119518,-14.959084c-2.107718,-4.875781 -3.682067,-10.165595 -4.671552,-15.694561l-12.580078,-3.528258l0,-21.066666l12.580078,-3.528252c0.777977,-4.248311 1.890692,-8.365468 3.316065,-12.271748c0.41382,-1.159799 0.866258,-2.317024 1.355487,-3.42282l-7.119518,-14.959078l10.62134,-14.851078l1.771138,1.632976l8.927442,8.321748c3.487109,-2.947075 7.27033,-5.148377 11.224596,-6.531904l0.263003,-1.789844l2.260367,-15.8l15.066666,0l2.523375,17.589843c3.954261,1.383527 7.737482,3.584829 11.224591,6.531904l10.698585,-9.954724l10.621336,14.851078l-7.119513,14.959078c2.107714,4.875781 3.682063,10.165595 4.671547,15.694568l12.580078,3.528252l0,21.066666l-12.580078,3.528258zm0,0"/>
   <path stroke="null" id="svg_5" fill="#ffd422" d="m224.099999,27.333333l128.066663,0c2.080127,0 3.766667,2.35817 3.766667,5.266667l0,42.133333c0,2.908497 -1.686539,5.266667 -3.766667,5.266667l-128.066663,0c-2.080127,0 -3.766667,-2.35817 -3.766667,-5.266667l0,-42.133333c0,-2.908497 1.686539,-5.266667 3.766667,-5.266667zm0,0"/>
   <path stroke="null" id="svg_6" fill="#ee8700" d="m265.533331,206.399997l0,73.733332l-41.433332,0c-2.080127,0 -3.766667,-2.35817 -3.766667,-5.266667l0,-68.466666l45.199999,0zm0,0"/>
   <path stroke="null" id="svg_7" fill="#ee8700" d="m265.533331,132.666665l45.199999,0l0,73.733332l-45.199999,0l0,-73.733332zm0,0"/>
   <path stroke="null" id="svg_8" fill="#ff6243" d="m310.73333,206.399997l0,73.733332l-45.199999,0l0,-73.733332l45.199999,0zm0,0"/>
   <path stroke="null" id="svg_9" fill="#ff6243" d="m265.533331,132.666665l0,73.733332l-45.199999,0l0,-68.466666c0,-2.908497 1.686539,-5.266667 3.766667,-5.266667l41.433332,0zm0,0"/>
   <path stroke="null" id="svg_10" fill="#ffd422" d="m370.999995,127.399998c-12.48076,0 -22.599999,14.149025 -22.599999,31.6s10.119239,31.6 22.599999,31.6s22.599999,-14.149025 22.599999,-31.6s-10.119239,-31.6 -22.599999,-31.6zm0,0"/>
   <path stroke="null" id="svg_11" d="m424.487394,143.305436l-10.31051,-2.885356c-0.831317,-3.785417 -1.918279,-7.452537 -3.246179,-10.949933l5.833921,-12.240885c0.995003,-2.088148 0.798208,-4.865491 -0.470833,-6.63991l-10.656281,-14.899933c-1.269046,-1.771838 -3.255375,-2.049576 -4.748797,-0.658333l-8.765593,8.141733c-2.504979,-1.848988 -5.127667,-3.366243 -7.834958,-4.533757l-2.063578,-14.426756c-0.358638,-2.450751 -1.901724,-4.212306 -3.691258,-4.212306l-15.066666,0c-1.789534,0 -3.332615,1.761555 -3.691258,4.212306l-2.063578,14.416473c-2.707292,1.167508 -5.329979,2.684762 -7.834958,4.533751l-8.75088,-8.152016c-1.493422,-1.391243 -3.47975,-1.116079 -4.748797,0.658333l-10.656281,14.899933c-1.267201,1.774419 -1.465836,4.551763 -0.470833,6.63991l5.822885,12.261458c-1.327896,3.497396 -2.414862,7.164516 -3.246174,10.949933l-10.314192,2.885356c-1.752752,0.501466 -3.012599,2.659048 -3.012599,5.161228l0,21.066666c0,2.50218 1.259846,4.659769 3.012599,5.161228l10.310515,2.885356c0.831313,3.785417 1.918274,7.452537 3.246174,10.949933l-5.833921,12.240885c-0.995003,2.088148 -0.798208,4.865491 0.470833,6.63991l10.656281,14.899933c1.269046,1.771845 3.255375,2.049576 4.748797,0.658333l8.765593,-8.141733c2.504979,1.848995 5.127667,3.366243 7.834958,4.533757l2.063578,14.426756c0.358643,2.450751 1.901724,4.212306 3.691258,4.212306l15.066666,0c1.789534,0 3.332619,-1.761555 3.691258,-4.212306l2.063578,-14.416466c2.707292,-1.167515 5.329979,-2.684769 7.834958,-4.533757l8.75088,8.152016c1.493422,1.391243 3.47975,1.116079 4.748797,-0.658333l10.656281,-14.899933c1.267206,-1.774419 1.465836,-4.551763 0.470833,-6.63991l-5.822885,-12.261458c1.327896,-3.497396 2.414862,-7.164516 3.246174,-10.949933l10.314192,-2.885356c1.752752,-0.501459 3.012599,-2.659048 3.012599,-5.161228l0,-21.066666c0,-2.50218 -1.259846,-4.659762 -3.012599,-5.161228zm-4.520734,21.915297l-9.552765,2.669338c-1.427213,0.398601 -2.561997,1.913281 -2.915122,3.885707c-0.893849,5.027507 -2.319221,9.836428 -4.230141,14.27503c-0.750391,1.743556 -0.713609,3.939717 0.093799,5.634412l5.405383,11.327961l-6.286359,8.789777l-8.10532,-7.547686c-1.212029,-1.13151 -2.780859,-1.182946 -4.029674,-0.136295c-3.174443,2.666763 -6.615575,4.659762 -10.209357,5.909569c-1.4125,0.49375 -2.493943,2.083006 -2.779018,4.081153l-1.91276,13.356964l-8.890661,0l-1.91276,-13.356964c-0.285075,-1.998147 -1.366518,-3.587403 -2.779018,-4.081153c-3.593781,-1.249806 -7.034914,-3.242805 -10.209357,-5.909569c-1.250651,-1.036361 -2.815805,-0.984932 -4.029674,0.136295l-8.10532,7.547686l-6.286359,-8.789777l5.405388,-11.327961c0.807404,-1.694695 0.844185,-3.890855 0.093795,-5.634412c-1.910919,-4.438602 -3.336292,-9.247523 -4.230141,-14.27503c-0.353125,-1.972426 -1.487909,-3.487106 -2.915122,-3.885707l-9.552765,-2.669338l0,-12.441473l9.552765,-2.669338c1.427213,-0.398594 2.561997,-1.913281 2.915122,-3.885707c0.893849,-5.027507 2.319221,-9.836428 4.230141,-14.27503c0.750391,-1.743556 0.713609,-3.939717 -0.093795,-5.634412l-5.405388,-11.327961l6.286359,-8.789777l8.10532,7.547686c1.212029,1.13151 2.780859,1.182946 4.029674,0.136295c3.174443,-2.666763 6.615575,-4.659762 10.209357,-5.909569c1.4125,-0.49375 2.493948,-2.083006 2.779018,-4.081153l1.91276,-13.356964l8.890661,0l1.91276,13.356964c0.285075,1.998147 1.366518,3.587403 2.779018,4.081153c3.593781,1.249806 7.034914,3.242805 10.209357,5.909569c1.248815,1.046651 2.817645,0.995216 4.029674,-0.136295l8.10532,-7.547686l6.286359,8.789777l-5.405383,11.327961c-0.807409,1.694695 -0.84419,3.890855 -0.093799,5.634412c1.910919,4.438602 3.336292,9.247523 4.230141,14.27503c0.353125,1.972426 1.487909,3.487113 2.915122,3.885707l9.552765,2.669338l0,12.441473zm0,0"/>
   <path stroke="null" id="svg_12" d="m370.999995,122.133331c-14.562729,0 -26.366666,16.50462 -26.366666,36.866666s11.803937,36.866666 26.366666,36.866666s26.366666,-16.50462 26.366666,-36.866666c-0.016554,-20.351756 -11.811296,-36.843519 -26.366666,-36.866666zm0,63.199999c-10.400633,0 -18.833333,-11.790855 -18.833333,-26.333333s8.4327,-26.333333 18.833333,-26.333333s18.833333,11.790855 18.833333,26.333333c-0.012873,14.537336 -8.436377,26.315334 -18.833333,26.333333zm0,0"/>
   <path stroke="null" id="svg_13" d="m367.233328,290.666662c0,8.725491 -5.059617,15.8 -11.3,15.8l-135.599996,0c-6.240382,0 -11.3,-7.074509 -11.3,-15.8l0,-184.33333l112.999996,0l0,-10.533333l-112.999996,0l0,-68.466666c0,-8.725491 5.059617,-15.8 11.3,-15.8l135.599996,0c6.240382,0 11.3,7.074509 11.3,15.8l0,42.133333l7.533333,0l0,-42.133333c-0.012873,-14.537336 -8.436377,-26.315334 -18.833333,-26.333333l-135.599996,0c-10.396955,0.017999 -18.82046,11.795997 -18.833333,26.333333l0,263.333329c0.012873,14.537336 8.436377,26.315334 18.833333,26.333333l135.599996,0c10.396955,-0.017999 18.82046,-11.795997 18.833333,-26.333333l0,-42.133333l-7.533333,0l0,42.133333zm0,0"/>
   <path stroke="null" id="svg_14" d="m224.099999,22.066666c-4.160255,0 -7.533333,4.716339 -7.533333,10.533333l0,42.133333c0,5.816994 3.373078,10.533333 7.533333,10.533333l128.066663,0c4.160255,0 7.533333,-4.716339 7.533333,-10.533333l0,-42.133333c0,-5.816994 -3.373078,-10.533333 -7.533333,-10.533333l-128.066663,0zm0,52.666666l0,-42.133333l128.066663,0l0,42.133333l-128.066663,0zm0,0"/>
   <path stroke="null" id="svg_15" d="m284.366664,48.399999l7.533333,0l0,10.533333l-7.533333,0l0,-10.533333zm0,0"/>
   <path stroke="null" id="svg_16" d="m299.43333,48.399999l7.533333,0l0,10.533333l-7.533333,0l0,-10.533333zm0,0"/>
   <path stroke="null" id="svg_17" d="m269.299998,48.399999l7.533333,0l0,10.533333l-7.533333,0l0,-10.533333zm0,0"/>
   <path stroke="null" id="svg_18" d="m239.166665,185.33333l7.533333,0l0,-10.533333l7.533333,0l0,-10.533333l-7.533333,0l0,-10.533333l-7.533333,0l0,10.533333l-7.533333,0l0,10.533333l7.533333,0l0,10.533333zm0,0"/>
   <path stroke="null" id="svg_19" d="m293.459632,154.638539l-5.326302,7.447396l-5.326302,-7.447396l-5.326302,7.447396l5.326302,7.447396l-5.326302,7.447396l5.326302,7.447396l5.326302,-7.447396l5.326302,7.447396l5.326302,-7.447396l-5.326302,-7.447396l5.326302,-7.447396l-5.326302,-7.447396zm0,0"/>
   <path stroke="null" id="svg_20" d="m306.966663,185.33333l0,15.8l-37.666665,0l0,-63.199999l37.666665,0l0,-10.533333l-82.866664,0c-4.160255,0 -7.533333,4.716339 -7.533333,10.533333l0,136.933331c0,5.816994 3.373078,10.533333 7.533333,10.533333l128.066663,0c4.160255,0 7.533333,-4.716339 7.533333,-10.533333l0,-31.6l-7.533333,0l0,31.6l-37.666665,0l0,-89.533332l-7.533333,0zm0,26.333333l0,63.199999l-37.666665,0l0,-63.199999l37.666665,0zm-45.199999,-73.733332l0,63.199999l-37.666665,0l0,-63.199999l37.666665,0zm-37.666665,73.733332l37.666665,0l0,63.199999l-37.666665,0l0,-63.199999zm0,0"/>
   <path stroke="null" id="svg_21" d="m231.633332,237.999996l22.599999,0l0,10.533333l-22.599999,0l0,-10.533333zm0,0"/>
   <path stroke="null" id="svg_22" d="m276.833331,237.999996l22.599999,0l0,10.533333l-22.599999,0l0,-10.533333zm0,0"/>
   <path stroke="null" id="svg_23" d="m284.366664,222.199997l7.533333,0l0,10.533333l-7.533333,0l0,-10.533333zm0,0"/>
   <path stroke="null" id="svg_24" d="m284.366664,253.799996l7.533333,0l0,10.533333l-7.533333,0l0,-10.533333zm0,0"/>
  </g>
 </g>
</svg>