<svg width="582" height="481" xmlns="http://www.w3.org/2000/svg">
 <defs>
  <linearGradient spreadMethod="pad" y2="0" x2="1" y1="0" x1="0" id="svg_27">
   <stop offset="0" stop-color="#3c42e0"/>
   <stop offset="1" stop-color="#c3bd1f"/>
  </linearGradient>
 </defs>
 <g>
  <title>background</title>
  <rect fill="none" id="canvas_background" height="483" width="584" y="-1" x="-1"/>
 </g>
 <g>
  <title>Layer 1</title>
  <rect id="svg_26" height="403" width="421" y="45" x="94.5" stroke-opacity="null" stroke-width="null" stroke="null" fill="url(#svg_27)"/>
  <g stroke="null" id="svg_25">
   <path stroke="null" id="svg_1" fill="#3d9ae2" d="m391.749988,100.416665l0,64.716663l-8.499999,0l-2.550414,17.649999l-23.034669,0l-1.998408,-1.824179l-1.315678,1.824179l-149.600819,0l0,-82.366662c0,-12.996187 7.611819,-23.533332 16.999999,-23.533332l152.99999,0c9.388186,0 16.999999,10.537145 16.999999,23.533332zm0,0"/>
   <path stroke="null" id="svg_2" fill="#5aaae7" d="m354.350819,182.783326l-149.600819,0l0,211.799987c0,12.996194 7.611819,23.533332 16.999999,23.533332l152.99999,0c9.388186,0 16.999999,-10.537138 16.999999,-23.533332l0,-211.799987l-37.399169,0zm0,0"/>
   <path stroke="null" id="svg_3" fill="#ff5023" d="m350.185904,218.083324l-26.435912,0l0,164.733323l46.749997,0c2.347046,0 4.25,-2.634284 4.25,-5.883333l0,-158.84999l-24.564085,0zm0,0"/>
   <path stroke="null" id="svg_4" fill="#ff9811" d="m437.055649,263.208032c-1.116454,6.176345 -2.892821,12.085535 -5.270993,17.532215l8.033079,16.710622l-11.98425,16.589962l-12.071412,-11.120301c-3.93457,3.292137 -8.203249,5.751186 -12.664914,7.296708l-2.84717,19.649413l-16.999999,0l-2.847165,-19.649413c-1.917483,-0.692329 -3.805912,-1.536903 -5.652834,-2.53087c-2.434203,-1.301342 -4.779173,-2.895703 -7.012085,-4.765838l-12.071407,11.120301l-11.984255,-16.589962l8.033084,-16.710622c-2.378178,-5.446679 -4.154545,-11.35587 -5.270998,-17.532215l-14.194335,-3.941377l0,-23.533332l14.194335,-3.94137c0.877806,-4.745739 2.133303,-9.344968 3.741578,-13.708629c0.466921,-1.295598 0.977415,-2.588321 1.529421,-3.823593l-8.033084,-16.710614l11.984255,-16.589969l1.998408,1.824179l10.072999,9.296129c3.93457,-3.292144 8.203249,-5.751193 12.66492,-7.296715l0.296751,-1.999414l2.550414,-17.649999l16.999999,0l2.84717,19.649413c4.461666,1.545522 8.730344,4.004571 12.664914,7.296715l12.071412,-11.120308l11.98425,16.589969l-8.033079,16.710614c2.378172,5.446679 4.154539,11.35587 5.270993,17.532222l14.194335,3.94137l0,23.533332l-14.194335,3.941377zm0,0"/>
   <path stroke="null" id="svg_5" fill="#ffd422" d="m225.999998,100.416665l144.499991,0c2.347046,0 4.25,2.634284 4.25,5.883333l0,47.066664c0,3.249049 -1.902953,5.883333 -4.25,5.883333l-144.499991,0c-2.347046,0 -4.25,-2.634284 -4.25,-5.883333l0,-47.066664c0,-3.249049 1.902953,-5.883333 4.25,-5.883333zm0,0"/>
   <path stroke="null" id="svg_6" fill="#ee8700" d="m272.749995,300.449986l0,82.366662l-46.749997,0c-2.347046,0 -4.25,-2.634284 -4.25,-5.883333l0,-76.483329l50.999997,0zm0,0"/>
   <path stroke="null" id="svg_7" fill="#ee8700" d="m272.749995,218.083324l50.999997,0l0,82.366662l-50.999997,0l0,-82.366662zm0,0"/>
   <path stroke="null" id="svg_8" fill="#ff6243" d="m323.749992,300.449986l0,82.366662l-50.999997,0l0,-82.366662l50.999997,0zm0,0"/>
   <path stroke="null" id="svg_9" fill="#ff6243" d="m272.749995,218.083324l0,82.366662l-50.999997,0l0,-76.483329c0,-3.249049 1.902953,-5.883333 4.25,-5.883333l46.749997,0zm0,0"/>
   <path stroke="null" id="svg_10" fill="#ffd422" d="m391.749988,212.199991c-14.082273,0 -25.499998,15.805714 -25.499998,35.299998s11.417725,35.299998 25.499998,35.299998s25.499998,-15.805714 25.499998,-35.299998s-11.417725,-35.299998 -25.499998,-35.299998zm0,0"/>
   <path stroke="null" id="svg_11" d="m452.100813,229.967775l-11.63354,-3.223199c-0.937991,-4.228646 -2.164429,-8.325144 -3.662724,-12.232045l6.582522,-13.674153c1.12268,-2.332646 0.900633,-5.435185 -0.53125,-7.417368l-12.02368,-16.644545c-1.431889,-1.9793 -3.673099,-2.289558 -5.358155,-0.735417l-9.890382,9.095037c-2.826415,-2.065484 -5.785642,-3.760391 -8.840329,-5.064608l-2.328373,-16.115964c-0.404658,-2.737706 -2.14575,-4.705519 -4.164915,-4.705519l-16.999999,0c-2.019164,0 -3.760251,1.967813 -4.164915,4.705519l-2.328373,16.104477c-3.054687,1.30421 -6.013914,2.999117 -8.840329,5.064601l-9.87378,-9.106524c-1.685056,-1.554141 -3.926267,-1.246759 -5.358155,0.735417l-12.02368,16.644545c-1.429806,1.982183 -1.65393,5.084722 -0.53125,7.417368l6.570069,13.697135c-1.49829,3.906901 -2.724733,8.003399 -3.662719,12.232045l-11.637695,3.223199c-1.977663,0.560182 -3.399171,2.970392 -3.399171,5.765549l0,23.533332c0,2.795157 1.421508,5.205374 3.399171,5.765549l11.633546,3.223199c0.937986,4.228646 2.164424,8.325144 3.662719,12.232045l-6.582522,13.674153c-1.12268,2.332646 -0.900633,5.435185 0.53125,7.417368l12.02368,16.644545c1.431889,1.979308 3.673099,2.289558 5.358155,0.735417l9.890382,-9.095037c2.826415,2.065491 5.785642,3.760391 8.840329,5.064608l2.328373,16.115964c0.404664,2.737706 2.14575,4.705519 4.164915,4.705519l16.999999,0c2.019164,0 3.760256,-1.967813 4.164915,-4.705519l2.328373,-16.104469c3.054687,-1.304217 6.013914,-2.999125 8.840329,-5.064608l9.87378,9.106524c1.685056,1.554141 3.926267,1.246759 5.358155,-0.735417l12.02368,-16.644545c1.429811,-1.982183 1.65393,-5.084722 0.53125,-7.417368l-6.570069,-13.697135c1.49829,-3.906901 2.724733,-8.003399 3.662719,-12.232045l11.637695,-3.223199c1.977663,-0.560174 3.399171,-2.970392 3.399171,-5.765549l0,-23.533332c0,-2.795157 -1.421508,-5.205367 -3.399171,-5.765549zm-5.100828,24.481328l-10.778562,2.981886c-1.610351,0.445273 -2.890749,2.137305 -3.289186,4.340679c-1.008546,5.616171 -2.61682,10.988161 -4.772946,15.946472c-0.84668,1.947707 -0.805178,4.401013 0.105836,6.294137l6.098994,12.654336l-7.093016,9.818959l-9.145383,-8.431434c-1.367554,-1.263997 -3.137695,-1.321455 -4.546756,-0.152253c-3.581783,2.979011 -7.464476,5.205367 -11.519406,6.601511c-1.59375,0.551562 -2.813962,2.326902 -3.135618,4.559009l-2.158203,14.920912l-10.031497,0l-2.158203,-14.920912c-0.321656,-2.232107 -1.541868,-4.007447 -3.135618,-4.559009c-4.05493,-1.396144 -7.937624,-3.6225 -11.519406,-6.601511c-1.411133,-1.157708 -3.177124,-1.100257 -4.546756,0.152253l-9.145383,8.431434l-7.093016,-9.818959l6.098999,-12.654336c0.911009,-1.893124 0.95251,-4.34643 0.10583,-6.294137c-2.156126,-4.958311 -3.7644,-10.330302 -4.772946,-15.946472c-0.398437,-2.203374 -1.678835,-3.895406 -3.289186,-4.340679l-10.778562,-2.981886l0,-13.898227l10.778562,-2.981886c1.610351,-0.445265 2.890749,-2.137305 3.289186,-4.340679c1.008546,-5.616171 2.61682,-10.988161 4.772946,-15.946472c0.84668,-1.947707 0.805178,-4.401013 -0.10583,-6.294137l-6.098999,-12.654336l7.093016,-9.818959l9.145383,8.431434c1.367554,1.263997 3.137695,1.321455 4.546756,0.152253c3.581783,-2.979011 7.464476,-5.205367 11.519406,-6.601511c1.59375,-0.551562 2.813967,-2.326902 3.135618,-4.559009l2.158203,-14.920912l10.031497,0l2.158203,14.920912c0.321656,2.232107 1.541868,4.007447 3.135618,4.559009c4.05493,1.396144 7.937624,3.6225 11.519406,6.601511c1.409061,1.169202 3.179202,1.111744 4.546756,-0.152253l9.145383,-8.431434l7.093016,9.818959l-6.098994,12.654336c-0.911014,1.893124 -0.952515,4.34643 -0.105836,6.294137c2.156126,4.958311 3.7644,10.330302 4.772946,15.946472c0.398437,2.203374 1.678835,3.895414 3.289186,4.340679l10.778562,2.981886l0,13.898227zm0,0"/>
   <path stroke="null" id="svg_12" d="m391.749988,206.316658c-16.431397,0 -29.749998,18.437123 -29.749998,41.183331s13.318601,41.183331 29.749998,41.183331s29.749998,-18.437123 29.749998,-41.183331c-0.018679,-22.734714 -13.326905,-41.157474 -29.749998,-41.183331zm0,70.599996c-11.735227,0 -21.249999,-13.171429 -21.249999,-29.416665s9.514772,-29.416665 21.249999,-29.416665s21.249999,13.171429 21.249999,29.416665c-0.014524,16.239492 -9.518921,29.396559 -21.249999,29.416665zm0,0"/>
   <path stroke="null" id="svg_13" d="m387.499988,394.583313c0,9.747146 -5.70886,17.649999 -12.749999,17.649999l-152.99999,0c-7.041139,0 -12.749999,-7.902853 -12.749999,-17.649999l0,-205.916654l127.499992,0l0,-11.766666l-127.499992,0l0,-76.483329c0,-9.747146 5.70886,-17.649999 12.749999,-17.649999l152.99999,0c7.041139,0 12.749999,7.902853 12.749999,17.649999l0,47.066664l8.499999,0l0,-47.066664c-0.014524,-16.239492 -9.518921,-29.396559 -21.249999,-29.416665l-152.99999,0c-11.731078,0.020106 -21.235474,13.177173 -21.249999,29.416665l0,294.166649c0.014524,16.239492 9.518921,29.396559 21.249999,29.416665l152.99999,0c11.731078,-0.020106 21.235474,-13.177173 21.249999,-29.416665l0,-47.066664l-8.499999,0l0,47.066664zm0,0"/>
   <path stroke="null" id="svg_14" d="m225.999998,94.533332c-4.694093,0 -8.499999,5.268569 -8.499999,11.766666l0,47.066664c0,6.498097 3.805907,11.766666 8.499999,11.766666l144.499991,0c4.694093,0 8.499999,-5.268569 8.499999,-11.766666l0,-47.066664c0,-6.498097 -3.805907,-11.766666 -8.499999,-11.766666l-144.499991,0zm0,58.83333l0,-47.066664l144.499991,0l0,47.066664l-144.499991,0zm0,0"/>
   <path stroke="null" id="svg_15" d="m293.999994,123.949997l8.499999,0l0,11.766666l-8.499999,0l0,-11.766666zm0,0"/>
   <path stroke="null" id="svg_16" d="m310.999993,123.949997l8.499999,0l0,11.766666l-8.499999,0l0,-11.766666zm0,0"/>
   <path stroke="null" id="svg_17" d="m276.999995,123.949997l8.499999,0l0,11.766666l-8.499999,0l0,-11.766666zm0,0"/>
   <path stroke="null" id="svg_18" d="m242.999997,276.916654l8.499999,0l0,-11.766666l8.499999,0l0,-11.766666l-8.499999,0l0,-11.766666l-8.499999,0l0,11.766666l-8.499999,0l0,11.766666l8.499999,0l0,11.766666zm0,0"/>
   <path stroke="null" id="svg_19" d="m304.259759,242.627854l-6.009765,8.319401l-6.009765,-8.319401l-6.009765,8.319401l6.009765,8.319401l-6.009765,8.319401l6.009765,8.319401l6.009765,-8.319401l6.009765,8.319401l6.009765,-8.319401l-6.009765,-8.319401l6.009765,-8.319401l-6.009765,-8.319401zm0,0"/>
   <path stroke="null" id="svg_20" d="m319.499992,276.916654l0,17.649999l-42.499997,0l0,-70.599996l42.499997,0l0,-11.766666l-93.499994,0c-4.694093,0 -8.499999,5.268569 -8.499999,11.766666l0,152.966657c0,6.498097 3.805907,11.766666 8.499999,11.766666l144.499991,0c4.694093,0 8.499999,-5.268569 8.499999,-11.766666l0,-35.299998l-8.499999,0l0,35.299998l-42.499997,0l0,-100.01666l-8.499999,0zm0,29.416665l0,70.599996l-42.499997,0l0,-70.599996l42.499997,0zm-50.999997,-82.366662l0,70.599996l-42.499997,0l0,-70.599996l42.499997,0zm-42.499997,82.366662l42.499997,0l0,70.599996l-42.499997,0l0,-70.599996zm0,0"/>
   <path stroke="null" id="svg_21" d="m234.499998,335.749984l25.499998,0l0,11.766666l-25.499998,0l0,-11.766666zm0,0"/>
   <path stroke="null" id="svg_22" d="m285.499995,335.749984l25.499998,0l0,11.766666l-25.499998,0l0,-11.766666zm0,0"/>
   <path stroke="null" id="svg_23" d="m293.999994,318.099985l8.499999,0l0,11.766666l-8.499999,0l0,-11.766666zm0,0"/>
   <path stroke="null" id="svg_24" d="m293.999994,353.399983l8.499999,0l0,11.766666l-8.499999,0l0,-11.766666zm0,0"/>
  </g>
 </g>
</svg>